<svg width="128" height="128" viewBox="0 0 128 128" fill="none" xmlns="http://www.w3.org/2000/svg">
<g clip-path="url(#clip0_3_3)">
<circle cx="64" cy="64" r="64" fill="#5469FB"/>
<path d="M38.184 67.512L55.864 65.432C61.688 71.6027 66.888 77.1147 71.464 81.968C76.04 86.8213 79.7493 90.704 82.592 93.616C82.592 96.2507 81.7253 98.3307 79.992 99.856C78.2586 101.312 76.248 102.04 73.96 102.04C71.464 102.04 69.4186 101.416 67.824 100.168C66.2293 98.92 64.704 97.464 63.248 95.8L38.184 67.512ZM56.28 73.024L36.104 73.96L68.76 37.352C72.712 37.352 75.5893 38.1493 77.392 39.744C79.1946 41.2693 80.096 43.072 80.096 45.152C80.096 46.7467 79.68 48.272 78.848 49.728C78.0853 51.1147 76.8026 52.64 75 54.304L56.28 73.024ZM29.552 56.904H45.36V100.896C44.736 101.104 43.7306 101.312 42.344 101.52C40.9573 101.728 39.536 101.832 38.08 101.832C34.96 101.832 32.7413 101.277 31.424 100.168C30.176 98.9893 29.552 97.048 29.552 94.344V56.904ZM45.36 76.872H29.552V37.768C30.2453 37.6293 31.2853 37.456 32.672 37.248C34.128 37.04 35.5146 36.936 36.832 36.936C39.8826 36.936 42.0666 37.456 43.384 38.496C44.7013 39.536 45.36 41.512 45.36 44.424V76.872Z" fill="white"/>
<circle cx="91.5" cy="37.5" r="7.5" stroke="white" stroke-width="6"/>
</g>
<defs>
<clipPath id="clip0_3_3">
<rect width="128" height="128" fill="white"/>
</clipPath>
</defs>
</svg>
